<?xml version="1.0" encoding="utf-8"?>
<!-- Generator: Adobe Illustrator 24.1.1, SVG Export Plug-In . SVG Version: 6.00 Build 0)  -->
<svg version="1.1" id="Laag_1" xmlns="http://www.w3.org/2000/svg" xmlns:xlink="http://www.w3.org/1999/xlink" x="0px" y="0px"
	 viewBox="0 0 684.1 546.7" style="enable-background:new 0 0 684.1 546.7;" xml:space="preserve">
<g>
	<path d="M496.1,390.9c0-2.7,0-4.9,0-7c0-69,0.2-138-0.1-207c-0.1-18,9.9-30.9,26.5-36.1c38.5-12,76.9-24.3,115.4-36.3
		c24.7-7.7,46.2,8.1,46.2,34c0,33.8,0,67.7,0,101.5c0,19.2-8.2,30.4-26.6,36.2c-34.6,11-69.1,22.1-103.8,32.8
		c-5.2,1.6-6.5,4-6.4,9.1c0.2,45.7-0.4,91.3,0.3,137c0.4,30-13.4,51.6-36.9,67.9c-22.8,15.8-48.7,22.6-76.3,23.5
		c-24.9,0.8-48.9-2.8-71.5-13.3c-20.1-9.3-37-22.5-47.4-42.6c-13.5-26.1-7.4-57.2,14.4-78.3c24.3-23.4,53.9-33.5,86.7-35.9
		c26.8-1.9,52.5,2.3,76.9,13.7C493.9,390.4,494.6,390.5,496.1,390.9z M424.8,495.6c17.9,0,32.9-2.3,46.6-9.4
		c6.8-3.5,13.3-8.3,18.9-13.5c7.5-6.9,7.2-15,0.2-22.4c-3.1-3.2-6.6-6.2-10.3-8.6c-23.9-15-49.9-17.1-77-11.6
		c-14.7,3-27.9,9-38.4,20c-7.3,7.6-7.3,15.3-0.1,22.8c2.9,3,6,5.8,9.5,8.1C390.3,491.7,408.4,495.3,424.8,495.6z M547.6,256.9
		c1.4-0.3,2.6-0.3,3.6-0.7c25.9-8.2,51.7-16.4,77.6-24.5c3.2-1,4-2.7,4-5.7c-0.1-20.2,0-40.3-0.1-60.5c0-1.6-0.3-3.1-0.5-4.9
		c-1.4,0.3-2.2,0.4-3,0.6c-26.2,8.2-52.4,16.5-78.6,24.6c-3.1,1-3.6,2.7-3.6,5.5c0.1,20.5,0,41,0.1,61.5
		C547.3,254,547.5,255.3,547.6,256.9z"/>
	<path d="M239.5,0c86-0.3,154.3,70.9,153.8,154.5c-0.5,83.2-68.4,153.3-153.9,153c-85.9-0.2-153.9-68.8-153.7-154.1
		C85.9,68.1,155.4-0.8,239.5,0z M137,153.5c-0.1,56.5,45.7,102.6,102.1,102.8c56.6,0.2,102.9-46,103-102.5
		c0-56.7-45.7-102.2-103-102.4C183.1,51.2,137.1,97.2,137,153.5z"/>
	<path d="M403.2,343.6c-3.4,0.6-6.7,1.1-9.9,1.7c-28.3,5.1-54.3,15.5-77.2,33.4c-4.7,3.7-11.4,5.1-17.5,6.7
		c-43.8,11.5-88,12.1-130.4-4c-51.6-19.6-113.8,22.3-116.5,80.8c-0.5,9.6-0.3,19.3-0.7,29c-0.1,3.6,1.4,4.5,4.7,4.5
		c17.5-0.1,35,0,52.5-0.1c55.7,0,111.3,0,167-0.1c4,0,5.9,1.3,7.3,4.9c7.2,17.4,18.5,31.9,33,43.9c0.5,0.4,0.8,0.9,1.7,2
		c-2.2,0.1-3.8,0.3-5.4,0.3c-86.7,0-173.3-0.3-260,0.2C27.8,547,6.8,529.5,1.7,508.3c-0.5-2.3-1.2-4.6-1.3-6.9
		c-0.8-28.9-1.6-57.7,9.5-85.3c15.5-38.2,42.2-65.5,80.4-81c19.8-8.1,40.6-12.2,62.1-9.6c10.5,1.3,20.9,4.2,31,7.4
		c37.6,11.7,75,11.3,112.6,0c11.6-3.5,23.5-6.8,35.5-7.8c25.2-2,48.8,5.2,70.9,17.1C402.7,342.4,402.8,342.8,403.2,343.6z"/>
</g>
</svg>
