<?xml version="1.0" encoding="utf-8"?>
<!-- Generator: Adobe Illustrator 24.1.1, SVG Export Plug-In . SVG Version: 6.00 Build 0)  -->
<svg version="1.1" id="Capa_1" xmlns="http://www.w3.org/2000/svg" xmlns:xlink="http://www.w3.org/1999/xlink" x="0px" y="0px"
	 viewBox="0 0 29.1 29.1" style="enable-background:new 0 0 29.1 29.1;" xml:space="preserve">
<g>
	<path d="M24,8.1c0-0.3,0-0.5-0.1-0.7c-0.1-0.7,0.3-1.1,1-1.2c0.5-0.1,1-0.1,1.5-0.2c0.2,0,0.4,0,0.6-0.1c0.7,0,1.1,0.3,1.1,1
		c0.3,3.4,0.6,6.9,1,10.3c0.1,0.7-0.3,1.2-1,1.2c-0.7,0.1-1.3,0.1-2,0.2c-0.7,0.1-1.2-0.3-1.2-1c0-0.3-0.1-0.7-0.1-1
		c-0.1,0-0.1,0-0.1,0c-0.5,0-0.8,0.1-0.9,0.8c-0.1,0.9-0.8,1.4-1.7,1.6c-0.1,0-0.2,0.1-0.2,0.2c-0.2,0.9-1,1.6-1.9,1.6
		c-0.2,0-0.3,0-0.4,0.2c-0.3,0.6-0.8,0.9-1.4,0.9c-0.3,0-0.4,0.1-0.6,0.3c-0.4,0.7-1.4,0.9-2.3,0.5c-0.2-0.1-0.4-0.2-0.6-0.3
		c-1,1-1.6,0.9-2.8-0.2c-1.1,0.4-2.1-0.1-2.7-1.1c0-0.1-0.2-0.1-0.2-0.2c-1-0.2-1.6-0.7-1.8-1.7c0-0.1-0.1-0.2-0.2-0.2
		c-0.6-0.2-1-0.5-1.2-1c-0.1-0.2-0.1-0.4-0.1-0.7c0-0.2,0-0.3-0.2-0.3c-0.3,0-0.7-0.1-1-0.1c-0.1,0-0.2,0.1-0.2,0.2
		c-0.1,0.2-0.1,0.4-0.1,0.6c-0.1,0.6-0.5,1-1,0.9c-0.8-0.1-1.6-0.2-2.5-0.4c-0.5-0.1-0.8-0.6-0.7-1.1c0.5-3.5,1-6.9,1.6-10.4
		c0.1-0.6,0.6-0.9,1.2-0.9C3.5,6,4.2,6.2,5,6.3c0.6,0.1,0.9,0.6,0.8,1.2c0,0.3-0.1,0.5-0.1,0.8c0.9,0,1.7,0.4,2.6,0.1
		c1.3-0.4,2.6-0.7,3.8-1.1c0.3-0.1,0.6-0.2,0.9-0.4c0.5-0.4,1.1-0.6,1.8-0.5c0,0,0.1,0,0.1,0c1.1-0.1,2.1,0.1,3,0.6
		c0.9,0.4,1.9,0.8,2.9,1.1c0.4,0.2,0.9,0.2,1.3,0.2C22.7,8.2,23.3,8.1,24,8.1z M12.4,16.8c0.3,0,0.6-0.1,0.9-0.1
		c0.8,0,1.6,0.8,1.6,1.6c0,0.2,0.1,0.3,0.2,0.4c0.5,0.3,0.8,0.6,0.9,1.2c0,0.1,0,0.2,0.1,0.2c0.4,0.3,0.9,0.6,1.3,0.9
		c0.4,0.2,0.9,0.1,1.1-0.2c0.2-0.2,0.2-0.4,0-0.6c-0.2-0.1-0.3-0.2-0.5-0.3c-0.8-0.6-1.6-1.1-2.5-1.7c-0.2-0.2-0.3-0.4-0.2-0.6
		c0.1-0.2,0.4-0.2,0.7-0.1c0.1,0.1,0.2,0.1,0.3,0.2c0.9,0.7,1.9,1.3,2.8,2c0.6,0.4,1.3,0.3,1.6-0.3c0.2-0.3,0.2-0.7-0.1-0.8
		c-0.5-0.4-1.1-0.8-1.6-1.2c-0.5-0.4-1.1-0.8-1.6-1.2c-0.2-0.1-0.3-0.3-0.1-0.5c0.2-0.2,0.4-0.2,0.6-0.1c0.1,0.1,0.3,0.2,0.4,0.3
		c0.9,0.7,1.9,1.4,2.8,2.1c0.5,0.3,1,0.2,1.4-0.3c0.3-0.5,0.3-0.9-0.2-1.2c-0.3-0.2-0.6-0.4-0.8-0.7c-1.9-1.5-3.8-3-5.6-4.5
		c-0.6-0.5-1.1-0.7-1.8-0.4c-0.3,0.1-0.6,0.3-0.8,0.6c-0.2,0.3-0.4,0.5-0.6,0.7c-0.6,0.6-1.3,0.9-2.2,0.9c-0.9,0-1.8-1-1.2-2
		c0.1-0.3,0.3-0.5,0.4-0.8c0.3-0.5,0.5-1.1,0.8-1.7c-0.6,0.2-1,0.3-1.5,0.4C8.5,9.2,7.8,9.5,7.1,9.3C6.7,9.2,6.3,9.2,5.9,9.2
		c-0.3-0.1-0.4,0-0.4,0.3c-0.2,1.3-0.4,2.5-0.6,3.8c-0.1,0.9-0.3,1.7-0.4,2.6c0,0.2,0,0.3,0.3,0.4c0.3,0,0.6,0.1,1,0.2
		c0.3,0,0.7,0.1,1-0.2c0.4-0.3,0.8-0.6,1.2-0.9c0.8-0.6,1.8-0.2,2.1,0.5c0,0.1,0.1,0.1,0.1,0.2C10.8,15.7,11.7,15.7,12.4,16.8z
		 M24,8.9c-0.4,0-0.7,0-1,0.1c-1.1,0.1-2.1,0-3.1-0.5c-0.8-0.4-1.6-0.6-2.4-1c-0.7-0.3-1.4-0.5-2.2-0.4c-0.2,0-0.4,0-0.6,0
		c-0.4,0-0.8,0.1-1.1,0.4c-0.6,0.4-1.2,0.8-1.8,1.2c-0.1,0.1-0.3,0.2-0.4,0.4c-0.4,0.8-0.8,1.6-1.2,2.4c-0.1,0.2-0.1,0.4,0.1,0.5
		c0.1,0.1,0.3,0.2,0.5,0.2c0.8,0,1.4-0.4,1.8-1c0.4-0.8,1.1-1.1,1.9-1.3c0.7-0.2,1.2,0,1.7,0.3c2.3,1.8,4.5,3.6,6.8,5.4
		c0.3,0.3,0.6,0.3,1,0.2c0.2-0.1,0.5-0.1,0.7-0.2C24.4,13.5,24.2,11.2,24,8.9z M5,7.3c0-0.2-0.1-0.2-0.3-0.2C4.1,7,3.4,6.9,2.8,6.8
		c-0.3-0.1-0.4,0-0.4,0.3C2.2,8.3,2,9.5,1.8,10.8c-0.3,2.2-0.7,4.3-1,6.5c0,0.2,0,0.3,0.2,0.4c0.7,0.1,1.4,0.2,2.1,0.3
		c0.2,0,0.3-0.1,0.3-0.3c0.2-1.2,0.4-2.4,0.5-3.5c0.1-1,0.3-2,0.4-2.9C4.6,9.9,4.8,8.7,5,7.3z M26.4,17.8c0.4,0,1-0.1,1.6-0.2
		c0.3,0,0.4-0.1,0.3-0.4c-0.3-3.4-0.6-6.8-0.9-10.1c0-0.3-0.1-0.4-0.4-0.4c-0.6,0.1-1.3,0.1-1.9,0.2c-0.3,0-0.3,0.1-0.3,0.4
		c0.2,2.3,0.4,4.6,0.6,6.9c0.1,1,0.2,2,0.3,3C25.7,17.8,25.7,17.9,26.4,17.8z M11.3,21.7c0.1-0.1,0.3-0.1,0.4-0.3
		c0.7-0.9,1.5-1.8,2.2-2.7c0.3-0.3,0.3-0.5,0-0.8c-0.1-0.1-0.3-0.3-0.5-0.3c-0.2-0.1-0.5-0.1-0.7,0.2c-0.8,1-1.7,1.9-2.5,2.9
		c-0.1,0.1-0.1,0.2,0,0.4C10.4,21.4,10.8,21.6,11.3,21.7z M11.7,17.4c0-0.5-0.7-0.9-1.1-0.8c-0.1,0-0.1,0-0.2,0.1
		c-0.7,0.6-1.4,1.3-2.1,1.9C8,19,8,19.3,8.3,19.7c0.2,0.2,0.4,0.4,0.7,0.5c0.3,0.1,0.5,0,0.7-0.2c0.6-0.7,1.2-1.4,1.8-2
		C11.6,17.8,11.6,17.6,11.7,17.4z M13.7,22.4c0.1-0.1,0.2-0.2,0.3-0.3c0.4-0.5,0.7-1.1,1.1-1.6c0.3-0.4,0.2-0.8-0.3-1
		c-0.2-0.1-0.3-0.1-0.4,0.1c-0.5,0.7-1.1,1.3-1.6,1.9c-0.1,0.1-0.1,0.3,0,0.3C12.9,22.1,13.2,22.3,13.7,22.4z M9.4,16.5
		c-0.2-0.2-0.3-0.4-0.5-0.5c-0.2-0.2-0.4-0.1-0.6,0.1c-0.6,0.5-1.2,0.9-1.8,1.4c-0.1,0.1-0.1,0.2-0.1,0.3c0.1,0.5,0.9,0.8,1.2,0.5
		c0.5-0.4,1-0.9,1.5-1.3C9.3,16.7,9.3,16.6,9.4,16.5z M15.2,21.8c0.2,0.1,0.4,0.2,0.5,0.3c0.4,0.1,0.7,0.1,1.1-0.1
		c0.1-0.1,0.2-0.2,0-0.4c-0.3-0.2-0.7-0.5-1-0.7C15.6,21.2,15.4,21.4,15.2,21.8z"/>
</g>
</svg>
