<?xml version="1.0" encoding="utf-8"?>
<!-- Generator: Adobe Illustrator 24.1.1, SVG Export Plug-In . SVG Version: 6.00 Build 0)  -->
<svg version="1.1" id="Capa_1" xmlns="http://www.w3.org/2000/svg" xmlns:xlink="http://www.w3.org/1999/xlink" x="0px" y="0px"
	 viewBox="0 0 29.1 29.1" style="enable-background:new 0 0 29.1 29.1;" xml:space="preserve">
<g>
	<path d="M27.9,21.8H1.2c-0.3,0-0.6,0.1-0.9,0.4C0.1,22.4,0,22.7,0,23.1v2.4c0,0.3,0.1,0.6,0.4,0.9c0.2,0.2,0.5,0.4,0.9,0.4h26.7
		c0.3,0,0.6-0.1,0.9-0.4c0.2-0.2,0.4-0.5,0.4-0.9v-2.4c0-0.3-0.1-0.6-0.4-0.9C28.5,22,28.2,21.8,27.9,21.8z"/>
	<path d="M28.8,2.8c-0.2-0.2-0.5-0.4-0.9-0.4H1.2c-0.3,0-0.6,0.1-0.9,0.4C0.1,3,0,3.3,0,3.6v2.4c0,0.3,0.1,0.6,0.4,0.9
		c0.2,0.2,0.5,0.4,0.9,0.4h26.7c0.3,0,0.6-0.1,0.9-0.4c0.2-0.2,0.4-0.5,0.4-0.9V3.6C29.1,3.3,29,3,28.8,2.8z"/>
	<path d="M27.9,12.1H1.2c-0.3,0-0.6,0.1-0.9,0.4C0.1,12.7,0,13,0,13.3v2.4c0,0.3,0.1,0.6,0.4,0.9C0.6,16.9,0.9,17,1.2,17h26.7
		c0.3,0,0.6-0.1,0.9-0.4c0.2-0.2,0.4-0.5,0.4-0.9v-2.4c0-0.3-0.1-0.6-0.4-0.9C28.5,12.3,28.2,12.1,27.9,12.1z"/>
</g>
</svg>
