<?xml version="1.0" encoding="utf-8"?>
<!-- Generator: Adobe Illustrator 24.1.1, SVG Export Plug-In . SVG Version: 6.00 Build 0)  -->
<svg version="1.1" id="Capa_1" xmlns="http://www.w3.org/2000/svg" xmlns:xlink="http://www.w3.org/1999/xlink" x="0px" y="0px"
	 viewBox="0 0 29.1 29.1" style="enable-background:new 0 0 29.1 29.1;" xml:space="preserve">
<style type="text/css">
	.st0{fill:none;}
	.st1{fill:#FFFFFF;}
</style>
<path class="st0" d="M9.2,15.8c2-0.2,3.5-2,3.3-4c-0.2-2-2-3.5-4-3.3c-2,0.2-3.5,2-3.4,4C5.4,14.4,7.2,15.9,9.2,15.8z"/>
<path class="st0" d="M23.7,21.3c1.2-0.7,1.6-2.3,0.9-3.5c-0.7-1.2-2.3-1.6-3.5-0.9c-1.1,0.7-1.5,2.3-0.9,3.4
	C20.9,21.6,22.5,22,23.7,21.3z"/>
<path d="M0.4,9.2C0.2,9.9,0.1,10.6,0,11.3L1.4,12c0,0.2,0,0.5,0,0.7c0,0.1,0,0.2,0,0.2l-1.4,0.9c0.1,0.7,0.4,1.4,0.7,2l1.6-0.1
	c0.2,0.3,0.3,0.5,0.5,0.8L2.2,18c0.5,0.5,1,1,1.6,1.4l1.3-0.9c0.3,0.2,0.6,0.3,0.9,0.4L6,20.5c0.7,0.2,1.4,0.4,2.1,0.4l0.7-1.4
	c0.2,0,0.5,0,0.7,0c0.1,0,0.2,0,0.2,0l0.9,1.4c0.7-0.1,1.4-0.4,2-0.7l-0.1-1.6c0.3-0.2,0.5-0.3,0.8-0.5l1.4,0.7c0.5-0.5,1-1,1.4-1.6
	l-0.9-1.3c0.2-0.3,0.3-0.6,0.4-0.9l1.6-0.1c0.2-0.7,0.4-1.4,0.4-2.1l-1.4-0.7c0-0.2,0-0.5,0-0.7c0-0.1,0-0.2,0-0.2l1.4-0.9
	c-0.1-0.7-0.4-1.4-0.7-2l-1.6,0.1c-0.2-0.3-0.3-0.5-0.5-0.8l0.7-1.4c-0.5-0.5-1-1-1.6-1.4l-1.3,0.9c-0.3-0.2-0.6-0.3-0.9-0.4
	l-0.1-1.6c-0.7-0.2-1.4-0.4-2.1-0.4L9,4.6c-0.2,0-0.5,0-0.7,0c-0.1,0-0.2,0-0.2,0L7.1,3.3C6.4,3.5,5.7,3.7,5.1,4l0.1,1.6
	C4.9,5.8,4.7,5.9,4.4,6.1L3,5.4C2.5,5.9,2,6.4,1.6,7l0.9,1.3C2.3,8.6,2.2,8.9,2,9.2L0.4,9.2z M8.9,6.8c2.9,0,5.3,2.4,5.3,5.3
	c0,2.9-2.4,5.3-5.3,5.3c-2.9,0-5.3-2.4-5.3-5.3C3.6,9.2,6,6.8,8.9,6.8z"/>
<path d="M8.9,17c2.7,0,4.9-2.2,4.9-4.9c0-2.7-2.2-4.9-4.9-4.9C6.2,7.2,4,9.4,4,12.1C4,14.8,6.2,17,8.9,17z M8.6,8.4
	c2-0.2,3.8,1.3,4,3.3c0.2,2-1.3,3.8-3.3,4c-2,0.2-3.8-1.3-4-3.3C5.1,10.4,6.6,8.6,8.6,8.4z"/>
<path d="M22.3,23.4c2.3,0,4.2-1.8,4.3-4.1c0-2.3-1.8-4.2-4.1-4.3c-2.3,0-4.2,1.8-4.3,4.1C18.1,21.4,20,23.3,22.3,23.4z M21,16.9
	c1.2-0.8,2.8-0.4,3.5,0.9c0.7,1.2,0.3,2.8-0.9,3.5c-1.2,0.7-2.8,0.3-3.5-0.9C19.5,19.2,19.9,17.7,21,16.9z"/>
<path d="M18,15.6l-1.1-0.3c-0.3,0.4-0.5,0.8-0.7,1.3l0.9,0.8c-0.1,0.3-0.2,0.6-0.2,0.9l-1.1,0.3c0,0.5,0,1,0,1.5l1.1,0.3
	c0.1,0.3,0.1,0.6,0.2,0.9L16.2,22c0.1,0.2,0.2,0.4,0.3,0.7c0.1,0.2,0.3,0.4,0.4,0.6l1.1-0.3c0.2,0.2,0.4,0.5,0.7,0.6l-0.3,1.1
	c0.4,0.3,0.8,0.5,1.3,0.7l0.8-0.9c0.3,0.1,0.6,0.2,0.9,0.2l0.3,1.1c0.5,0,1,0,1.5,0l0.3-1.1c0.3-0.1,0.6-0.1,0.9-0.2l0.8,0.8
	c0.2-0.1,0.4-0.2,0.6-0.3c0.2-0.1,0.4-0.3,0.6-0.4l-0.3-1.1c0.2-0.2,0.5-0.4,0.6-0.7l1.1,0.3c0.3-0.4,0.5-0.8,0.7-1.3L27.7,21
	c0.1-0.3,0.2-0.6,0.2-0.9l1.1-0.3c0-0.5,0-1,0-1.5l-1.1-0.3c-0.1-0.3-0.1-0.6-0.3-0.9l0.8-0.8c-0.1-0.2-0.2-0.4-0.3-0.7
	c-0.1-0.2-0.3-0.4-0.4-0.6l-1.1,0.3c-0.2-0.2-0.4-0.5-0.7-0.6l0.3-1.1c-0.4-0.3-0.8-0.5-1.3-0.7l-0.8,0.9c-0.3-0.1-0.6-0.2-0.9-0.2
	L23,12.5c-0.5,0-1,0-1.5,0l-0.3,1.1c-0.3,0.1-0.6,0.1-0.9,0.2L19.6,13c-0.2,0.1-0.4,0.2-0.7,0.3c-0.2,0.1-0.4,0.3-0.6,0.4l0.3,1.1
	C18.4,15.1,18.2,15.3,18,15.6z M22.5,14.8c2.4,0,4.3,2,4.3,4.5c-0.1,2.4-2,4.3-4.5,4.3c-2.4-0.1-4.3-2-4.3-4.5
	C18.1,16.7,20.1,14.8,22.5,14.8z"/>
<path class="st1" d="M8.9,17.3c2.9,0,5.3-2.4,5.3-5.3c0-2.9-2.4-5.3-5.3-5.3c-2.9,0-5.3,2.4-5.3,5.3C3.6,15,6,17.3,8.9,17.3z
	 M8.9,7.2c2.7,0,4.9,2.2,4.9,4.9c0,2.7-2.2,4.9-4.9,4.9C6.2,17,4,14.8,4,12.1C4,9.4,6.2,7.2,8.9,7.2z"/>
<path class="st1" d="M22.3,23.5c2.4,0.1,4.4-1.9,4.5-4.3c0-2.4-1.9-4.4-4.3-4.5c-2.4-0.1-4.4,1.9-4.5,4.3
	C18,21.5,19.9,23.5,22.3,23.5z M22.5,15c2.3,0,4.1,2,4.1,4.3c0,2.3-2,4.1-4.3,4.1c-2.3,0-4.1-2-4.1-4.3C18.2,16.8,20.2,15,22.5,15z"
	/>
</svg>
