<?xml version="1.0" encoding="utf-8"?>
<!-- Generator: Adobe Illustrator 24.1.1, SVG Export Plug-In . SVG Version: 6.00 Build 0)  -->
<svg version="1.1" id="Laag_1" xmlns="http://www.w3.org/2000/svg" xmlns:xlink="http://www.w3.org/1999/xlink" x="0px" y="0px"
	 viewBox="0 0 49.7 26.6" style="enable-background:new 0 0 49.7 26.6;" xml:space="preserve">
<style type="text/css">
	.st0{fill:#1E272E;}
</style>
<g>
	<path class="st0" d="M15.1,20.5c-1.1,0-3.2-0.7-6.2-2.1c-1.6-0.7-3.1-1.5-4.4-2.4c-1.1-0.7-1.7-1.5-1.7-2.3c0-0.9,0.7-1.8,2.1-2.7
		c1.4-0.9,3-1.7,4.8-2.6c1.8-0.8,3.5-1.5,5.1-2.1c0.6-0.2,1.1-0.3,1.6-0.3c0.6,0,0.8,0.3,0.8,0.8c0,0.9-0.5,1.7-1.6,2.4
		C12.7,11,9.8,12.4,7,13.5c2.6,0.9,5.3,2.2,7.9,3.8c0.9,0.6,1.4,1.2,1.4,1.8c0,0.2,0,0.3-0.1,0.5C16,20.2,15.6,20.5,15.1,20.5z"/>
	<path class="st0" d="M24.7,17.8c-3.4,0-5.5-0.2-6.3-0.5c-0.4-0.2-0.6-0.5-0.6-1c0-0.6,0.2-1.1,0.7-1.3c0.3-0.2,0.9-0.3,1.6-0.4
		c1.8-0.3,3.7-0.4,5.9-0.4c1.8,0,3.1,0.1,3.8,0.2c0.5,0.1,0.9,0.2,1.3,0.4c0.4,0.2,0.6,0.5,0.6,1c0,0.7-0.2,1.1-0.7,1.3
		C30,17.6,27.9,17.8,24.7,17.8z M25.2,12.3c-3.4,0-5.5-0.2-6.3-0.5c-0.4-0.2-0.6-0.5-0.6-1c0-0.6,0.2-1.1,0.7-1.3
		C19.5,9.3,20,9.1,20.6,9c1.8-0.3,3.7-0.4,5.7-0.4c1.4,0,2.7,0.1,3.9,0.2c1.4,0.1,2.1,0.6,2.1,1.4c0,0.7-0.2,1.1-0.7,1.3
		C30.5,12,28.4,12.3,25.2,12.3z"/>
	<path class="st0" d="M34.6,6.1c1.1,0,3.2,0.7,6.2,2.1c1.6,0.8,3.1,1.6,4.4,2.4c1.1,0.7,1.7,1.5,1.7,2.3c0,0.9-0.7,1.8-2.1,2.7
		c-1.4,0.9-3,1.8-4.8,2.6c-1.8,0.8-3.5,1.5-5.1,2.1c-0.6,0.2-1.1,0.3-1.6,0.3c-0.6,0-0.8-0.3-0.8-0.8c0-0.9,0.5-1.7,1.6-2.4
		c2.9-1.8,5.8-3.2,8.7-4.3c-2.6-0.9-5.3-2.2-7.9-3.9c-0.9-0.6-1.4-1.2-1.4-1.8c0-0.2,0-0.3,0.1-0.5C33.7,6.3,34.1,6.1,34.6,6.1z"/>
</g>
</svg>
